HIERARCHY
ROOT Hips
{
	OFFSET 0.0000 0.0000 0.0000
	CHANNELS 6 Xposition Yposition Zposition Zrotation Xrotation Yrotation
	JOINT Ab
	{
		OFFSET -0.0000 8.1305 -0.0000
		CHANNELS 3 Zrotation Xrotation Yrotation
		JOINT Chest
		{
			OFFSET -0.0000 26.2902 -0.0000
			CHANNELS 3 Zrotation Xrotation Yrotation
			JOINT Neck
			{
				OFFSET -0.0000 26.2902 0.0000
				CHANNELS 3 Zrotation Xrotation Yrotation
				JOINT Head
				{
					OFFSET -0.0000 10.8167 0.0000
					CHANNELS 3 Zrotation Xrotation Yrotation
					End Site
					{
						OFFSET -0.0000 16.7167 0.0000
					}
				}
			}
			JOINT LeftCollar
			{
				OFFSET -0.0000 26.2902 0.0000
				CHANNELS 3 Zrotation Xrotation Yrotation
				JOINT LeftShoulder
				{
					OFFSET 19.6667 -0.0000 0.0000
					CHANNELS 3 Zrotation Xrotation Yrotation
					JOINT LeftElbow
					{
						OFFSET 27.2190 0.0000 0.0000
						CHANNELS 3 Zrotation Xrotation Yrotation
						JOINT LeftWrist
						{
							OFFSET 30.7431 0.0000 0.0000
							CHANNELS 3 Zrotation Xrotation Yrotation
							End Site
							{
								OFFSET 0.0000 -14.7500 0.0000
							}
						}
					}
				}
			}
			JOINT RightCollar
			{
				OFFSET -0.0000 26.2902 0.0000
				CHANNELS 3 Zrotation Xrotation Yrotation
				JOINT RightShoulder
				{
					OFFSET -19.6667 0.0000 0.0000
					CHANNELS 3 Zrotation Xrotation Yrotation
					JOINT RightElbow
					{
						OFFSET -27.2190 0.0000 0.0000
						CHANNELS 3 Zrotation Xrotation Yrotation
						JOINT RightWrist
						{
							OFFSET -30.7431 0.0000 0.0000
							CHANNELS 3 Zrotation Xrotation Yrotation
							End Site
							{
								OFFSET -0.0000 -14.7500 0.0000
							}
						}
					}
				}
			}
		}
	}
	JOINT LeftHip
	{
		OFFSET 11.8000 0.0000 0.0000
		CHANNELS 3 Zrotation Xrotation Yrotation
		JOINT LeftKnee
		{
			OFFSET -0.0000 -39.7832 0.0000
			CHANNELS 3 Zrotation Xrotation Yrotation
			JOINT LeftAnkle
			{
				OFFSET -0.0000 -41.7317 0.0000
				CHANNELS 3 Zrotation Xrotation Yrotation
				End Site
				{
					OFFSET -0.0000 -4.9167 16.7167
				}
			}
		}
	}
	JOINT RightHip
	{
		OFFSET -11.8000 0.0000 0.0000
		CHANNELS 3 Zrotation Xrotation Yrotation
		JOINT RightKnee
		{
			OFFSET -0.0000 -39.7832 0.0000
			CHANNELS 3 Zrotation Xrotation Yrotation
			JOINT RightAnkle
			{
				OFFSET -0.0000 -41.7317 0.0000
				CHANNELS 3 Zrotation Xrotation Yrotation
				End Site
				{
					OFFSET -0.0000 -4.9167 16.7167
				}
			}
		}
	}
}
MOTION
Frames: 16
Frame Time: 0.010000
-6.3526 92.4030 87.4840 356.6809 351.4015 192.6251 1.6905 349.5320 0.9115 4.6859 10.6073 0.3208 349.8480 348.4639 353.9966 5.5516 6.6251 354.6975 339.9875 357.4358 14.4296 320.4945 59.2956 338.2498 15.3694 353.9976 317.4053 88.9756 356.3573 352.8186 26.8296 356.0930 343.7831 39.9932 47.2445 9.5146 337.0731 352.7059 34.9078 271.0549 356.0213 4.3722 359.6992 354.0658 3.4408 356.8011 28.3715 3.5109 348.9625 348.9707 14.9129 355.4114 354.9521 6.1601 9.3001 7.3431 8.3550 351.4071 343.9314 318.5110 
-6.2991 92.4122 87.2465 356.6217 351.4166 192.5303 1.6439 349.5310 0.9530 4.6891 10.5848 0.3672 349.9125 348.6452 354.0334 5.4520 6.7273 354.7123 339.9774 357.4330 14.4430 320.3288 59.2742 338.5187 15.2740 354.0396 317.3990 88.9594 356.3372 352.7361 26.8190 356.1090 343.7660 40.0239 47.2202 9.3875 337.2408 352.7762 34.8560 270.9949 355.9906 4.5956 359.4880 353.6327 3.5408 356.8682 27.7489 3.7839 349.1341 348.8011 14.8325 355.4388 355.1719 6.1614 9.2531 7.3427 8.6876 351.4189 343.7984 318.2415 
-6.2527 92.4198 86.9834 356.5472 351.4854 192.4008 1.6003 349.5151 1.0058 4.6831 10.6600 0.4249 350.0580 348.7165 354.0970 5.2401 6.9499 354.7576 339.9679 357.4204 14.4665 320.1774 59.2271 338.7812 15.1147 354.1183 317.4301 89.2311 356.3188 352.6652 26.8016 356.0934 343.7425 40.0558 47.2078 9.3126 337.3273 352.8096 34.7584 271.0377 355.9999 4.7032 359.2837 353.2984 3.6782 356.9322 27.0682 3.8979 348.2977 348.6240 14.9359 355.4775 355.4827 6.2385 9.1675 7.1657 8.3727 351.4231 343.7904 318.5520 
-6.2063 92.4188 86.7295 356.5163 351.5761 192.3199 1.5848 349.5276 1.0380 4.6802 10.7238 0.4527 350.0764 348.8532 354.1113 5.2398 7.0146 354.7544 339.9621 357.4325 14.4699 320.0523 59.1790 339.0218 14.9110 354.2130 317.4669 89.3647 356.2437 352.5518 26.7946 356.0801 343.6796 40.0287 47.1984 9.2912 337.4610 352.8820 34.6652 271.0754 355.9849 4.8316 359.1077 352.9397 3.7640 357.0150 26.4245 3.8467 349.5815 348.6688 15.0956 355.5531 355.8067 6.2001 9.1172 7.0707 8.2171 351.4149 343.6730 318.7432 
-6.1531 92.4200 86.5160 356.4918 351.5539 192.2493 1.5381 349.4968 1.0722 4.6951 10.6933 0.4889 350.0278 349.0342 354.1379 5.3096 7.0419 354.7650 339.9366 357.4380 14.4689 319.8766 59.1305 339.3179 14.7204 354.2971 317.5713 89.3005 356.1008 352.3421 26.7823 356.0818 343.6514 40.0473 47.1671 9.1851 337.5803 352.9439 34.5927 271.0850 355.9615 5.0092 358.8915 352.4012 3.8502 357.0718 25.8580 3.6727 350.7951 348.6837 15.2407 355.5895 355.9423 6.1628 9.1097 7.1134 8.3082 351.2762 343.6354 318.7147 
-6.1039 92.4213 86.2972 356.4648 351.5405 192.1658 1.4939 349.4605 1.1055 4.6903 10.6790 0.5259 350.0516 349.2018 354.1461 5.2773 7.0994 354.7542 339.9216 357.4288 14.4593 319.6550 59.0526 339.6765 14.5041 354.4002 317.6896 89.3400 355.9634 352.1108 26.7878 356.0721 343.6343 40.0912 47.0893 9.0510 337.6876 353.0082 34.5299 271.1315 355.9287 5.2055 358.6748 351.8861 3.9275 357.0830 25.2064 3.9128 350.6751 348.7586 16.3265 355.6268 356.1027 6.1998 9.0838 7.0561 8.2612 351.1786 343.6895 318.8465 
-6.0671 92.4226 86.0609 356.4236 351.5793 192.0675 1.4664 349.4620 1.1349 4.6552 10.6245 0.5623 350.0942 349.5409 354.1701 5.2533 7.0168 354.7499 339.8931 357.4427 14.4061 319.3472 58.9704 340.1925 14.2504 354.5239 317.7919 89.4310 355.9144 352.0180 26.8518 356.0723 343.6669 40.1498 46.9460 8.7945 337.8905 353.0948 34.4970 271.1874 355.9336 5.6119 358.4491 351.4591 3.9782 357.0957 24.5367 4.1485 350.0409 348.7950 17.6244 355.6592 356.3365 6.2964 9.0676 6.9336 8.1206 351.1502 343.6968 319.0112 
-6.0379 92.4239 85.8124 356.3717 351.6393 191.9545 1.4451 349.4484 1.1611 4.6133 10.6149 0.5964 350.1116 349.8572 354.2027 5.2415 6.9482 354.7583 339.8532 357.4462 14.3618 319.0734 58.8804 340.6707 14.0156 354.6398 317.9050 89.5748 355.9564 352.0145 26.9194 356.0786 343.7053 40.1879 46.8029 8.5612 338.0624 353.1482 34.4540 271.2734 355.9254 5.9967 358.2161 351.0969 3.9475 357.0861 23.8881 4.0469 349.8621 348.6655 17.6731 355.6872 356.5968 6.4371 9.0541 6.7985 7.9130 351.0830 343.6928 319.1658 
-6.0026 92.4182 85.5675 356.3512 351.7109 191.8361 1.4272 349.4443 1.1935 4.6070 10.6337 0.6319 350.0946 350.0965 354.2170 5.2654 6.9058 354.7539 339.7978 357.4362 14.3182 318.8092 58.7521 341.1394 13.7477 354.7721 318.0244 89.6518 355.9614 351.8765 26.9616 356.0850 343.7164 40.2412 46.7103 8.3737 338.1207 353.1573 34.3817 271.3126 355.8819 6.1288 358.0305 350.7121 4.0192 357.1592 23.3292 3.6561 349.8627 348.5661 17.7593 355.7561 356.8599 6.5094 8.9881 6.7179 8.1689 350.8762 343.7091 318.8623 
-5.9893 92.4181 85.3502 356.3488 351.7281 191.7581 1.4525 349.4273 1.2088 4.5503 10.6203 0.6511 350.1157 350.2977 354.2092 5.2638 6.8802 354.7266 339.7784 357.4438 14.2922 318.6138 58.7048 341.4878 13.4713 354.8984 318.1975 89.6104 355.9728 351.6629 26.9848 356.0699 343.6862 40.3137 46.6738 8.2255 338.1037 353.1680 34.2495 271.3106 355.7998 6.2273 357.8117 350.2230 4.0515 357.2202 22.7995 3.3647 350.2283 348.6405 17.6669 355.8012 357.0465 6.5010 8.9418 6.6866 8.5209 350.8171 343.7024 318.5464 
-5.9705 92.4126 85.1354 356.3486 351.7493 191.6883 1.4494 349.4020 1.2246 4.5400 10.6328 0.6666 350.0860 350.4642 354.2037 5.2950 6.8729 354.7078 339.7705 357.4339 14.2771 318.4051 58.6791 341.8008 13.2261 355.0098 318.4102 89.5814 355.9913 351.4855 26.9784 356.0516 343.6684 40.3977 46.6185 8.0732 338.0971 353.1907 34.1374 271.3730 355.7700 6.2842 357.6095 349.7278 4.0569 357.1140 22.1962 3.4890 350.2669 348.7398 17.4021 355.8535 357.2259 6.4162 8.8996 6.6708 8.6914 350.7423 343.7211 318.5326 
-5.9400 92.3998 84.9137 356.3656 351.7874 191.6135 1.4304 349.3693 1.2396 4.5528 10.6784 0.6772 350.1204 350.5793 354.2051 5.2648 6.9034 354.6970 339.7771 357.4473 14.2641 318.2078 58.5834 342.0870 12.8759 355.1995 318.6443 89.4141 355.9559 351.1014 26.9903 356.0587 343.6612 40.4855 46.4752 7.8928 338.1513 353.2363 34.0978 271.3940 355.8099 6.3439 357.4468 349.2573 4.0973 357.0904 21.6787 3.0182 350.2653 348.6112 15.9851 355.9389 357.4432 6.4959 8.8594 6.5945 8.6634 350.6442 343.7849 318.5694 
-5.9326 92.3998 84.7120 356.3130 351.7625 191.4776 1.3682 349.3059 1.2770 4.5453 10.7189 0.7234 350.1051 350.6402 354.2077 5.2641 6.9844 354.6931 339.7727 357.4286 14.2637 317.9918 58.5410 342.3963 12.6277 355.3238 318.8711 89.0484 356.0155 350.6403 26.9987 356.0432 343.6423 40.4954 46.4064 7.8039 338.1570 353.2495 33.9906 271.3672 355.8099 6.4057 357.1788 348.7738 4.0571 357.0862 21.1318 2.6116 350.5649 348.6365 15.6449 355.9011 357.5953 6.7587 8.8923 6.4776 8.5172 350.5190 343.8955 318.5759 
-5.9131 92.3885 84.5026 356.3184 351.7931 191.3906 1.3241 349.2878 1.2923 4.5750 10.7427 0.7376 350.1116 350.7591 354.1867 5.2796 7.0036 354.6583 339.7813 357.4530 14.2199 317.7852 58.5119 342.6959 12.2675 355.5005 319.1188 89.0458 356.0303 350.3030 27.0109 356.0353 343.5985 40.5298 46.2710 7.6987 338.1995 353.2853 33.8907 271.3402 355.7969 6.3248 356.9953 348.3101 3.9854 357.0641 20.6438 2.3119 351.2400 348.8428 15.2708 355.9651 357.7693 6.7482 8.8590 6.4725 8.7128 350.4289 343.9478 318.4902 
-5.8959 92.3729 84.2823 356.3386 351.8654 191.3022 1.3121 349.2950 1.2988 4.5788 10.7828 0.7403 350.1252 350.8700 354.1748 5.3084 7.0058 354.6350 339.8199 357.4444 14.2030 317.5408 58.4984 342.9790 12.0076 355.6056 319.4234 88.8821 356.1160 349.8685 27.0200 356.0321 343.5816 40.5982 46.1438 7.5745 338.2502 353.3137 33.7820 271.2691 355.6994 6.5450 356.8595 347.8547 3.7970 356.9276 20.2286 1.9684 351.1803 348.7674 15.4329 356.0638 358.0058 6.8319 8.8251 6.4152 8.8703 350.2611 344.1076 318.3529 
-5.8861 92.3649 84.0608 356.3290 351.9189 191.1711 1.2764 349.2795 1.3257 4.5758 10.8179 0.7704 350.1000 351.0230 354.1796 5.3889 6.9769 354.6248 339.8671 357.4473 14.2733 317.4508 58.5333 343.0479 11.6910 355.7681 319.7203 88.9524 356.4104 349.6414 27.0166 356.0472 343.6942 40.9702 45.9332 7.0947 338.1483 353.2839 33.7647 271.4060 355.7389 6.6295 356.6614 347.5692 3.8323 356.9568 19.4302 1.5809 351.1178 349.1447 15.3152 356.1192 358.2132 6.9950 8.8213 6.3343 8.8488 350.0432 344.3908 318.3823 
